<mxfile host="app.diagrams.net" modified="2023-11-30T07:49:20.042Z" agent="Mozilla/5.0 (Windows NT 10.0; Win64; x64) AppleWebKit/537.36 (KHTML, like Gecko) Chrome/119.0.0.0 Safari/537.36 Edg/119.0.0.0" etag="YRzJsK9Q-HB7HUqhpVGE" version="22.1.5" type="github">
  <diagram name="第 1 页" id="HjGmIlFVLZZz4bBiAeKY">
    <mxGraphModel dx="1386" dy="759" grid="1" gridSize="10" guides="1" tooltips="1" connect="1" arrows="1" fold="1" page="1" pageScale="1" pageWidth="827" pageHeight="1169" math="0" shadow="0">
      <root>
        <mxCell id="0" />
        <mxCell id="1" parent="0" />
        <mxCell id="PvD9Z8y97wQxzXod0qV7-1" value="" style="group;sketch=1;curveFitting=1;jiggle=2;" vertex="1" connectable="0" parent="1">
          <mxGeometry x="160" y="170" width="120" height="90" as="geometry" />
        </mxCell>
        <mxCell id="PvD9Z8y97wQxzXod0qV7-2" value="Time series dataset" style="rounded=1;whiteSpace=wrap;html=1;fontSize=19;sketch=1;curveFitting=1;jiggle=2;" vertex="1" parent="PvD9Z8y97wQxzXod0qV7-1">
          <mxGeometry width="120" height="60" as="geometry" />
        </mxCell>
        <mxCell id="PvD9Z8y97wQxzXod0qV7-3" value="Label" style="rounded=1;whiteSpace=wrap;html=1;fontSize=19;sketch=1;curveFitting=1;jiggle=2;" vertex="1" parent="PvD9Z8y97wQxzXod0qV7-1">
          <mxGeometry y="60" width="120" height="30" as="geometry" />
        </mxCell>
        <mxCell id="PvD9Z8y97wQxzXod0qV7-4" style="edgeStyle=orthogonalEdgeStyle;rounded=0;orthogonalLoop=1;jettySize=auto;html=1;exitX=1;exitY=0.5;exitDx=0;exitDy=0;sketch=1;curveFitting=1;jiggle=2;" edge="1" parent="1" source="PvD9Z8y97wQxzXod0qV7-5" target="PvD9Z8y97wQxzXod0qV7-11">
          <mxGeometry relative="1" as="geometry" />
        </mxCell>
        <mxCell id="PvD9Z8y97wQxzXod0qV7-5" value="Time2Graph" style="shape=hexagon;perimeter=hexagonPerimeter2;whiteSpace=wrap;html=1;fixedSize=1;fontSize=16;sketch=1;curveFitting=1;jiggle=2;" vertex="1" parent="1">
          <mxGeometry x="350" y="90" width="120" height="80" as="geometry" />
        </mxCell>
        <mxCell id="PvD9Z8y97wQxzXod0qV7-6" style="edgeStyle=orthogonalEdgeStyle;rounded=0;orthogonalLoop=1;jettySize=auto;html=1;exitX=1;exitY=0.5;exitDx=0;exitDy=0;entryX=0;entryY=0.5;entryDx=0;entryDy=0;sketch=1;curveFitting=1;jiggle=2;" edge="1" parent="1" source="PvD9Z8y97wQxzXod0qV7-2" target="PvD9Z8y97wQxzXod0qV7-5">
          <mxGeometry relative="1" as="geometry" />
        </mxCell>
        <mxCell id="PvD9Z8y97wQxzXod0qV7-7" style="edgeStyle=orthogonalEdgeStyle;rounded=0;orthogonalLoop=1;jettySize=auto;html=1;exitX=1;exitY=0.5;exitDx=0;exitDy=0;entryX=0;entryY=0.5;entryDx=0;entryDy=0;sketch=1;curveFitting=1;jiggle=2;" edge="1" parent="1" source="PvD9Z8y97wQxzXod0qV7-8" target="PvD9Z8y97wQxzXod0qV7-11">
          <mxGeometry relative="1" as="geometry" />
        </mxCell>
        <mxCell id="PvD9Z8y97wQxzXod0qV7-8" value="Other&amp;nbsp;feature extraction method" style="shape=hexagon;perimeter=hexagonPerimeter2;whiteSpace=wrap;html=1;fixedSize=1;fontSize=16;sketch=1;curveFitting=1;jiggle=2;" vertex="1" parent="1">
          <mxGeometry x="350" y="220" width="120" height="80" as="geometry" />
        </mxCell>
        <mxCell id="PvD9Z8y97wQxzXod0qV7-9" style="edgeStyle=orthogonalEdgeStyle;rounded=0;orthogonalLoop=1;jettySize=auto;html=1;exitX=1;exitY=0.5;exitDx=0;exitDy=0;entryX=0;entryY=0.5;entryDx=0;entryDy=0;sketch=1;curveFitting=1;jiggle=2;" edge="1" parent="1" source="PvD9Z8y97wQxzXod0qV7-2" target="PvD9Z8y97wQxzXod0qV7-8">
          <mxGeometry relative="1" as="geometry" />
        </mxCell>
        <mxCell id="PvD9Z8y97wQxzXod0qV7-10" style="edgeStyle=orthogonalEdgeStyle;rounded=0;orthogonalLoop=1;jettySize=auto;html=1;exitX=1;exitY=0.5;exitDx=0;exitDy=0;sketch=1;curveFitting=1;jiggle=2;" edge="1" parent="1" source="PvD9Z8y97wQxzXod0qV7-11" target="PvD9Z8y97wQxzXod0qV7-12">
          <mxGeometry relative="1" as="geometry" />
        </mxCell>
        <mxCell id="PvD9Z8y97wQxzXod0qV7-11" value="&lt;font style=&quot;font-size: 18px;&quot;&gt;classifier&lt;/font&gt;" style="shape=hexagon;perimeter=hexagonPerimeter2;whiteSpace=wrap;html=1;fixedSize=1;sketch=1;curveFitting=1;jiggle=2;" vertex="1" parent="1">
          <mxGeometry x="520" y="160" width="120" height="80" as="geometry" />
        </mxCell>
        <mxCell id="PvD9Z8y97wQxzXod0qV7-12" value="&lt;font style=&quot;font-size: 18px;&quot;&gt;Compare&lt;/font&gt;" style="rhombus;whiteSpace=wrap;html=1;sketch=1;curveFitting=1;jiggle=2;" vertex="1" parent="1">
          <mxGeometry x="690" y="150" width="90" height="100" as="geometry" />
        </mxCell>
        <mxCell id="PvD9Z8y97wQxzXod0qV7-13" value="" style="group;sketch=1;curveFitting=1;jiggle=2;" vertex="1" connectable="0" parent="1">
          <mxGeometry x="160" y="430" width="120" height="90" as="geometry" />
        </mxCell>
        <mxCell id="PvD9Z8y97wQxzXod0qV7-14" value="Time series dataset" style="rounded=1;whiteSpace=wrap;html=1;fontSize=19;sketch=1;curveFitting=1;jiggle=2;" vertex="1" parent="PvD9Z8y97wQxzXod0qV7-13">
          <mxGeometry width="120" height="60" as="geometry" />
        </mxCell>
        <mxCell id="PvD9Z8y97wQxzXod0qV7-15" value="Label" style="rounded=1;whiteSpace=wrap;html=1;fontSize=19;sketch=1;curveFitting=1;jiggle=2;" vertex="1" parent="PvD9Z8y97wQxzXod0qV7-13">
          <mxGeometry y="60" width="120" height="30" as="geometry" />
        </mxCell>
        <mxCell id="PvD9Z8y97wQxzXod0qV7-16" style="edgeStyle=orthogonalEdgeStyle;rounded=0;orthogonalLoop=1;jettySize=auto;html=1;exitX=1;exitY=0.5;exitDx=0;exitDy=0;sketch=1;curveFitting=1;jiggle=2;" edge="1" parent="1" source="PvD9Z8y97wQxzXod0qV7-17" target="PvD9Z8y97wQxzXod0qV7-22">
          <mxGeometry relative="1" as="geometry" />
        </mxCell>
        <mxCell id="PvD9Z8y97wQxzXod0qV7-17" value="Time2Graph" style="shape=hexagon;perimeter=hexagonPerimeter2;whiteSpace=wrap;html=1;fixedSize=1;fontSize=16;sketch=1;curveFitting=1;jiggle=2;" vertex="1" parent="1">
          <mxGeometry x="350" y="350" width="120" height="80" as="geometry" />
        </mxCell>
        <mxCell id="PvD9Z8y97wQxzXod0qV7-18" style="edgeStyle=orthogonalEdgeStyle;rounded=0;orthogonalLoop=1;jettySize=auto;html=1;exitX=1;exitY=0.5;exitDx=0;exitDy=0;entryX=0;entryY=0.5;entryDx=0;entryDy=0;sketch=1;curveFitting=1;jiggle=2;" edge="1" parent="1" source="PvD9Z8y97wQxzXod0qV7-14" target="PvD9Z8y97wQxzXod0qV7-17">
          <mxGeometry relative="1" as="geometry" />
        </mxCell>
        <mxCell id="PvD9Z8y97wQxzXod0qV7-19" style="edgeStyle=orthogonalEdgeStyle;rounded=0;orthogonalLoop=1;jettySize=auto;html=1;exitX=1;exitY=0.5;exitDx=0;exitDy=0;entryX=0;entryY=0.5;entryDx=0;entryDy=0;sketch=1;curveFitting=1;jiggle=2;" edge="1" parent="1" source="PvD9Z8y97wQxzXod0qV7-20" target="PvD9Z8y97wQxzXod0qV7-22">
          <mxGeometry relative="1" as="geometry" />
        </mxCell>
        <mxCell id="PvD9Z8y97wQxzXod0qV7-20" value="Pattern Time2Graph" style="shape=hexagon;perimeter=hexagonPerimeter2;whiteSpace=wrap;html=1;fixedSize=1;fontSize=16;sketch=1;curveFitting=1;jiggle=2;" vertex="1" parent="1">
          <mxGeometry x="350" y="480" width="120" height="80" as="geometry" />
        </mxCell>
        <mxCell id="PvD9Z8y97wQxzXod0qV7-21" style="edgeStyle=orthogonalEdgeStyle;rounded=0;orthogonalLoop=1;jettySize=auto;html=1;exitX=1;exitY=0.5;exitDx=0;exitDy=0;entryX=0;entryY=0.5;entryDx=0;entryDy=0;sketch=1;curveFitting=1;jiggle=2;" edge="1" parent="1" source="PvD9Z8y97wQxzXod0qV7-14" target="PvD9Z8y97wQxzXod0qV7-20">
          <mxGeometry relative="1" as="geometry" />
        </mxCell>
        <mxCell id="PvD9Z8y97wQxzXod0qV7-30" style="edgeStyle=orthogonalEdgeStyle;rounded=0;orthogonalLoop=1;jettySize=auto;html=1;exitX=1;exitY=0.5;exitDx=0;exitDy=0;" edge="1" parent="1" source="PvD9Z8y97wQxzXod0qV7-22" target="PvD9Z8y97wQxzXod0qV7-28">
          <mxGeometry relative="1" as="geometry" />
        </mxCell>
        <mxCell id="PvD9Z8y97wQxzXod0qV7-22" value="&lt;font style=&quot;font-size: 18px;&quot;&gt;classifier&lt;/font&gt;" style="shape=hexagon;perimeter=hexagonPerimeter2;whiteSpace=wrap;html=1;fixedSize=1;sketch=1;curveFitting=1;jiggle=2;" vertex="1" parent="1">
          <mxGeometry x="520" y="420" width="120" height="80" as="geometry" />
        </mxCell>
        <mxCell id="PvD9Z8y97wQxzXod0qV7-23" value="" style="shape=flexArrow;endArrow=classic;html=1;rounded=0;sketch=1;curveFitting=1;jiggle=2;" edge="1" parent="1">
          <mxGeometry width="50" height="50" relative="1" as="geometry">
            <mxPoint x="810" y="230" as="sourcePoint" />
            <mxPoint x="810" y="150" as="targetPoint" />
          </mxGeometry>
        </mxCell>
        <mxCell id="PvD9Z8y97wQxzXod0qV7-27" value="&lt;font style=&quot;font-size: 18px;&quot;&gt;T2G F1-Score&amp;nbsp;&lt;/font&gt;" style="whiteSpace=wrap;html=1;shape=mxgraph.basic.octagon2;align=center;verticalAlign=middle;dx=15;sketch=1;curveFitting=1;jiggle=2;" vertex="1" parent="1">
          <mxGeometry x="690" y="340" width="100" height="100" as="geometry" />
        </mxCell>
        <mxCell id="PvD9Z8y97wQxzXod0qV7-28" value="&lt;font style=&quot;font-size: 18px;&quot;&gt;PatternT2G F1-Score&amp;nbsp;&lt;/font&gt;" style="whiteSpace=wrap;html=1;shape=mxgraph.basic.octagon2;align=center;verticalAlign=middle;dx=15;sketch=1;curveFitting=1;jiggle=2;" vertex="1" parent="1">
          <mxGeometry x="690" y="470" width="100" height="100" as="geometry" />
        </mxCell>
        <mxCell id="PvD9Z8y97wQxzXod0qV7-29" style="edgeStyle=orthogonalEdgeStyle;rounded=0;orthogonalLoop=1;jettySize=auto;html=1;exitX=1;exitY=0.5;exitDx=0;exitDy=0;entryX=0;entryY=0.5;entryDx=0;entryDy=0;entryPerimeter=0;" edge="1" parent="1" source="PvD9Z8y97wQxzXod0qV7-22" target="PvD9Z8y97wQxzXod0qV7-27">
          <mxGeometry relative="1" as="geometry" />
        </mxCell>
        <mxCell id="PvD9Z8y97wQxzXod0qV7-31" value="&lt;font style=&quot;font-size: 18px;&quot;&gt;Original&amp;nbsp;purpose&lt;/font&gt;" style="rounded=1;whiteSpace=wrap;html=1;sketch=1;curveFitting=1;jiggle=2;" vertex="1" parent="1">
          <mxGeometry x="20" y="185" width="130" height="60" as="geometry" />
        </mxCell>
      </root>
    </mxGraphModel>
  </diagram>
</mxfile>
